<?xml version="1.0" standalone="no"?>
<!DOCTYPE svg PUBLIC "-//W3C//DTD SVG 20010904//EN"
 "http://www.w3.org/TR/2001/REC-SVG-20010904/DTD/svg10.dtd">
<svg version="1.0" xmlns="http://www.w3.org/2000/svg"
 width="144.000000pt" height="146.000000pt" viewBox="0 0 144.000000 146.000000"
 preserveAspectRatio="xMidYMid meet">
  <g transform="translate(0.000000,146.000000) scale(0.100000,-0.100000)"
  fill="#fff" stroke="none">
    <path d="M580 1344 c-234 -50 -436 -254 -485 -489 -95 -454 306 -855 760 -760
    238 50 440 252 490 490 95 456 -309 857 -765 759z m-7 -415 c30 -15 87 -70 87
    -84 0 -5 -9 -16 -19 -22 -16 -10 -22 -8 -35 12 -42 64 -159 74 -217 19 -57
    -54 -75 -118 -54 -196 33 -129 183 -175 265 -82 25 29 33 33 50 24 26 -14 25
    -22 -5 -58 -55 -65 -181 -84 -259 -38 -156 91 -151 335 9 419 35 19 146 22
    178 6z m485 -5 c58 -40 67 -132 17 -184 -25 -26 -25 -28 -7 -32 27 -7 53 -49
    59 -95 4 -29 -1 -46 -19 -73 -36 -53 -58 -60 -200 -60 l-128 0 0 230 0 230
    128 0 c99 0 132 -3 150 -16z"/>
    <path d="M830 815 l0 -75 90 0 c77 0 93 3 110 20 24 24 26 77 4 108 -14 20
    -23 22 -110 22 l-94 0 0 -75z"/>
    <path d="M830 610 l0 -80 98 0 c90 0 100 2 120 23 30 32 29 81 -3 112 -22 23
    -32 25 -120 25 l-95 0 0 -80z"/>
  </g>
</svg>
