<?xml version="1.0" standalone="no"?>
<!DOCTYPE svg PUBLIC "-//W3C//DTD SVG 20010904//EN"
 "http://www.w3.org/TR/2001/REC-SVG-20010904/DTD/svg10.dtd">
<svg version="1.0" xmlns="http://www.w3.org/2000/svg"
 width="65.000000pt" height="62.000000pt" viewBox="0 0 65.000000 62.000000"
 preserveAspectRatio="xMidYMid meet">
<metadata>
Created by potrace 1.12, written by Peter Selinger 2001-2015
</metadata>
<g transform="translate(0.000000,62.000000) scale(0.100000,-0.100000)"
fill="#fff" stroke="none">
<path d="M253 580 c-131 -27 -218 -137 -218 -275 1 -110 51 -191 150 -243 71
-38 188 -38 259 -2 209 107 204 408 -8 500 -52 23 -129 31 -183 20z m17 -188
c14 -11 20 -24 16 -31 -6 -9 -12 -9 -24 2 -49 44 -122 6 -122 -63 0 -10 10
-31 23 -46 27 -31 68 -35 98 -8 13 12 23 14 30 7 16 -16 -38 -53 -78 -53 -47
0 -103 54 -103 100 0 88 97 143 160 92z m209 -3 c16 -15 20 -24 12 -32 -7 -7
-16 -5 -30 7 -46 42 -111 7 -111 -59 0 -67 71 -103 115 -59 13 13 19 14 28 5
19 -20 -27 -51 -75 -51 -59 0 -98 42 -98 105 0 38 5 52 29 76 37 37 95 40 130
8z"/>
</g>
</svg>
